<svg width="50" height="50" viewBox="0 0 50 50" fill="none" xmlns="http://www.w3.org/2000/svg">
<path d="M26.2867 3.11993L29.9314 9.2023C30.4976 10.147 31.6153 10.61 32.6836 10.3423L39.5617 8.61864C40.6609 8.3432 41.6568 9.33914 41.3814 10.4383L39.6577 17.3164C39.39 18.3847 39.853 19.5024 40.7977 20.0686L46.8801 23.7133C47.852 24.2958 47.852 25.7042 46.8801 26.2867L40.7977 29.9314C39.853 30.4976 39.39 31.6153 39.6577 32.6836L41.3814 39.5617C41.6568 40.6609 40.6609 41.6568 39.5617 41.3814L32.6836 39.6577C31.6153 39.39 30.4976 39.853 29.9314 40.7977L26.2867 46.8801C25.7042 47.852 24.2958 47.852 23.7133 46.8801L20.0686 40.7977C19.5024 39.853 18.3847 39.39 17.3164 39.6577L10.4383 41.3814C9.33914 41.6568 8.3432 40.6609 8.61864 39.5617L10.3423 32.6836C10.61 31.6153 10.147 30.4976 9.20231 29.9314L3.11994 26.2867C2.14796 25.7042 2.14796 24.2958 3.11993 23.7133L9.2023 20.0686C10.147 19.5024 10.61 18.3847 10.3423 17.3164L8.61864 10.4383C8.3432 9.33914 9.33914 8.3432 10.4383 8.61864L17.3164 10.3423C18.3847 10.61 19.5024 10.147 20.0686 9.20231L23.7133 3.11994C24.2958 2.14796 25.7042 2.14796 26.2867 3.11993Z" fill="#FFD69D" stroke="black"/>
</svg>
